<svg viewBox="0 0 720 420" xmlns="http://www.w3.org/2000/svg"><defs><linearGradient id="bg" x1="0" y1="0" x2="1" y2="1"><stop stop-color="#17121d"/><stop offset="1" stop-color="#050709"/></linearGradient><radialGradient id="glow"><stop stop-color="#9b6ee8" stop-opacity=".35"/><stop offset="1" stop-color="#9b6ee8" stop-opacity="0"/></radialGradient></defs><rect width="720" height="420" fill="url(#bg)"/><circle cx="535" cy="170" r="220" fill="url(#glow)"/><g stroke="#342c3d" stroke-width="8" opacity=".5"><path d="M35 25v370M145 25v370M255 25v370M365 25v370M475 25v370M585 25v370M695 25v370"/><path d="M20 70h680M20 180h680M20 290h680"/></g><g transform="translate(424 36)" fill="#14131a" stroke="#726a78" stroke-width="4"><circle cx="90" cy="50" r="31"/><path d="M80 16c23-14 49 6 43 29-5-12-17-18-34-18z" fill="#2a2020"/><path d="M55 84c19-16 53-17 72 0l25 89-20 88H48l-18-88z"/><path d="M57 104 8 184l23 16 52-66M124 104l50 76-23 17-50-64M58 253 30 371h35l36-110M119 253l34 118h35l-29-119"/></g><g transform="translate(280 160)" stroke="#b8b1bf" stroke-width="11" stroke-linecap="round"><path d="M0 0h260"/><g fill="#28232d" stroke="#62576c"><rect x="-32" y="-45" width="23" height="90" rx="4"/><rect x="269" y="-45" width="23" height="90" rx="4"/><rect x="-61" y="-36" width="25" height="72" rx="4"/><rect x="296" y="-36" width="25" height="72" rx="4"/></g></g></svg>
