<svg viewBox="0 0 720 420" xmlns="http://www.w3.org/2000/svg"><defs><linearGradient id="bg" x1="0" y1="0" x2="1" y2="1"><stop stop-color="#131a20"/><stop offset="1" stop-color="#050709"/></linearGradient><radialGradient id="glow"><stop stop-color="#83d633" stop-opacity=".35"/><stop offset="1" stop-color="#83d633" stop-opacity="0"/></radialGradient></defs><rect width="720" height="420" fill="url(#bg)"/><circle cx="530" cy="170" r="210" fill="url(#glow)"/><g stroke="#303a42" stroke-width="8" opacity=".45"><path d="M35 25v370M145 25v370M255 25v370M365 25v370M475 25v370M585 25v370M695 25v370"/><path d="M20 70h680M20 180h680M20 290h680"/></g><g transform="translate(420 45)" fill="#111820" stroke="#59636b" stroke-width="4"><circle cx="90" cy="48" r="34"/><path d="M50 85c20-18 61-18 82 0l28 94-21 94H40l-20-94z"/><path d="M53 105 4 190l25 15 55-68M130 105l52 80-24 17-55-67M58 264 38 370h34l31-100M126 264l28 106h35l-23-110"/></g><g transform="translate(270 168)" stroke="#aab1b8" stroke-width="12" stroke-linecap="round"><path d="M0 0h270"/><g fill="#252b30" stroke="#555"><rect x="-35" y="-52" width="25" height="104" rx="4"/><rect x="280" y="-52" width="25" height="104" rx="4"/><rect x="-67" y="-42" width="27" height="84" rx="4"/><rect x="310" y="-42" width="27" height="84" rx="4"/></g></g></svg>
