<svg viewBox="0 0 720 420" xmlns="http://www.w3.org/2000/svg">
  <defs>
    <linearGradient id="sky" x1="0" y1="0" x2="0" y2="1">
      <stop stop-color="#23394c"/><stop offset=".48" stop-color="#50616a"/><stop offset="1" stop-color="#181b1d"/>
    </linearGradient>
    <linearGradient id="sunset" x1="0" y1="0" x2="1" y2="0">
      <stop stop-color="#efaf55" stop-opacity="0"/><stop offset=".68" stop-color="#f3bd67" stop-opacity=".35"/><stop offset="1" stop-color="#ffe2a2" stop-opacity=".55"/>
    </linearGradient>
    <linearGradient id="trail" x1="0" y1="0" x2="0" y2="1">
      <stop stop-color="#9e7b50"/><stop offset="1" stop-color="#342719"/>
    </linearGradient>
    <filter id="soft" x="-20%" y="-20%" width="140%" height="140%"><feGaussianBlur stdDeviation="12"/></filter>
  </defs>
  <rect width="720" height="420" fill="url(#sky)"/>
  <rect width="720" height="420" fill="url(#sunset)"/>
  <circle cx="620" cy="78" r="38" fill="#ffd98a" opacity=".75" filter="url(#soft)"/>
  <circle cx="620" cy="78" r="22" fill="#ffe9b3" opacity=".9"/>
  <!-- Distant mountain range -->
  <path d="M0 251 95 165l55 47 75-92 72 86 50-60 69 70 72-106 95 125 63-70 74 86v169H0z" fill="#273238"/>
  <path d="M102 165l48 47 75-92 40 48-34-16-22 22-16-9-30 24zM488 110l95 125 23-26-38-37-25 13-19-30z" fill="#d6d9d6" opacity=".76"/>
  <path d="M0 298 105 223l86 54 83-47 104 65 83-38 91 51 82-42 106 55v99H0z" fill="#1b2925"/>
  <path d="M0 332 89 279l81 41 82-45 80 53 103-35 85 44 79-43 121 61v65H0z" fill="#101918"/>
  <!-- Pine silhouettes -->
  <g fill="#0b1412" opacity=".95">
    <path d="M74 231 42 300h22l-30 55h31l-35 65h88l-35-65h31l-30-55h22z"/>
    <path d="M655 192 628 250h18l-24 44h25l-28 52h72l-28-52h25l-24-44h18z"/>
    <path d="M596 242 574 290h15l-20 36h20l-23 44h60l-23-44h20l-20-36h15z"/>
  </g>
  <!-- Winding trail -->
  <path d="M482 420c-18-55-7-95 27-126 30-27 47-56 48-91" fill="none" stroke="#251b12" stroke-opacity=".65" stroke-width="66"/>
  <path d="M482 420c-18-55-7-95 27-126 30-27 47-56 48-91" fill="none" stroke="url(#trail)" stroke-width="44"/>
  <path d="M482 420c-18-55-7-95 27-126 30-27 47-56 48-91" fill="none" stroke="#d3b07c" stroke-opacity=".38" stroke-width="3" stroke-dasharray="9 14"/>
  <!-- Generic trail runner silhouette -->
  <g transform="translate(520 230)" fill="#0a0c0d" stroke="#d9e1e1" stroke-opacity=".18" stroke-width="2">
    <circle cx="10" cy="-19" r="10"/>
    <path d="M4-9c15 1 24 10 25 27l-3 34-12 34H2l8-31-3-28-17 20-9-6 19-28z"/>
    <path d="m23 5 22 22-7 8-22-18z"/>
    <path d="M10 84-4 117h-13L0 78zM25 83l20 29-11 8-23-30z"/>
  </g>
  <g opacity=".2" fill="#fff" font-family="Arial, sans-serif" font-weight="800">
    <text x="384" y="342" font-size="76">ENGINE</text>
    <text x="451" y="376" font-size="18" letter-spacing="6">TRAIL • SUMMIT</text>
  </g>
</svg>
