<svg viewBox="0 0 720 420" xmlns="http://www.w3.org/2000/svg">
  <defs>
    <linearGradient id="bg" x1="0" y1="0" x2="1" y2="1">
      <stop stop-color="#1d1710"/><stop offset=".55" stop-color="#0e0e0e"/><stop offset="1" stop-color="#050709"/>
    </linearGradient>
    <radialGradient id="glow" cx="78%" cy="25%" r="60%">
      <stop stop-color="#ef8b2c" stop-opacity=".30"/><stop offset="1" stop-color="#ef8b2c" stop-opacity="0"/>
    </radialGradient>
    <pattern id="topo" width="120" height="90" patternUnits="userSpaceOnUse">
      <path d="M-10 58C20 20 58 15 90 42s55 24 72-5M-20 78C22 42 54 42 82 62s57 17 89-8" fill="none" stroke="#fff" stroke-opacity=".045" stroke-width="2"/>
    </pattern>
  </defs>
  <rect width="720" height="420" fill="url(#bg)"/>
  <rect width="720" height="420" fill="url(#topo)"/>
  <rect width="720" height="420" fill="url(#glow)"/>
  <path d="M340 420c28-77 71-121 122-155 57-38 83-92 72-185" fill="none" stroke="#ef8b2c" stroke-opacity=".18" stroke-width="62"/>
  <path d="M340 420c28-77 71-121 122-155 57-38 83-92 72-185" fill="none" stroke="#f6b24e" stroke-width="5" stroke-dasharray="16 13"/>
  <g transform="translate(512 65)">
    <circle cx="0" cy="0" r="24" fill="#0b0d0e" stroke="#f6b24e" stroke-width="5"/>
    <circle cx="0" cy="0" r="7" fill="#f6b24e"/>
  </g>
  <g transform="translate(330 355)">
    <circle cx="0" cy="0" r="24" fill="#0b0d0e" stroke="#f6b24e" stroke-width="5"/>
    <path d="m-8 0 6 7 12-16" fill="none" stroke="#fff" stroke-width="5" stroke-linecap="round"/>
  </g>
  <g opacity=".22" fill="#fff" font-family="Arial, sans-serif" font-weight="800">
    <text x="390" y="315" font-size="90">ENGINE</text>
    <text x="455" y="352" font-size="22" letter-spacing="7">BASE • PEAK</text>
  </g>
</svg>
