<svg viewBox="0 0 720 420" xmlns="http://www.w3.org/2000/svg"><defs><linearGradient id="sky" x1="0" y1="0" x2="0" y2="1"><stop stop-color="#302517"/><stop offset=".55" stop-color="#101217"/><stop offset="1" stop-color="#050709"/></linearGradient></defs><rect width="720" height="420" fill="url(#sky)"/><circle cx="570" cy="94" r="58" fill="#d89b2c" opacity=".38"/><path d="M0 245 150 115l95 85 92-110 122 130 90-92 171 135v157H0Z" fill="#10151a"/><path d="M0 296c190-35 347-42 720-9v133H0Z" fill="#090c0e"/><path d="m355 420 112-176 48 176" fill="#25211b"/><g transform="translate(475 97)" fill="#0c0f12" stroke="#555c61" stroke-width="4"><circle cx="51" cy="35" r="22"/><path d="m38 59 42 13-7 77-38-3-20-62zM66 76l38 54-16 13-43-47M42 144 2 224l23 9 49-72M68 146l46 73 22-11-39-78"/></g></svg>
