<svg viewBox="0 0 720 420" xmlns="http://www.w3.org/2000/svg"><defs><linearGradient id="sky" x1="0" y1="0" x2="0" y2="1"><stop stop-color="#2e1d22"/><stop offset=".55" stop-color="#131019"/><stop offset="1" stop-color="#050709"/></linearGradient></defs><rect width="720" height="420" fill="url(#sky)"/><circle cx="570" cy="92" r="58" fill="#dc8d2e" opacity=".38"/><path d="M0 250 145 124l110 82 97-100 116 123 99-105 153 140v156H0Z" fill="#121218"/><path d="M0 310c220-40 465-33 720-4v114H0Z" fill="#080a0c"/><g transform="translate(390 115)" fill="none" stroke="#77717d" stroke-width="7"><circle cx="55" cy="190" r="50"/><circle cx="228" cy="190" r="50"/><path d="m55 190 66-91 45 91H55l58-2 54-71 61 73M121 99l-16-38M91 61h35"/></g><g transform="translate(500 45)" fill="#111015" stroke="#6e6871" stroke-width="4"><circle cx="45" cy="35" r="23"/><path d="M29 58c20-11 48-2 56 19l22 55-31 22-38-53-42 28-12-18 48-43zM76 143l34 80M58 145l-42 77"/></g></svg>
