<svg viewBox="0 0 160 190" xmlns="http://www.w3.org/2000/svg">
<defs><linearGradient id="g" x1="0" x2="1"><stop stop-color="#f4d47a"/><stop offset=".5" stop-color="#b77916"/><stop offset="1" stop-color="#f2c558"/></linearGradient><linearGradient id="s" x1="0" x2="1"><stop stop-color="#fff"/><stop offset=".5" stop-color="#aeb5bf"/><stop offset="1" stop-color="#f8fafc"/></linearGradient></defs>
<path d="M80 5 148 34v64c0 43-27 70-68 87C39 168 12 141 12 98V34Z" fill="#07090d" stroke="url(#g)" stroke-width="7"/>
<g opacity=".18" fill="#fff"><path d="M21 48h118v9H21zM21 66h118v9H21zM21 84h118v9H21zM21 102h118v9H21z"/><g transform="translate(25 38) scale(.42)"><path d="m0 10 3 8h9l-7 5 3 8-8-5-8 5 3-8-7-5h9z"/><path d="m30 10 3 8h9l-7 5 3 8-8-5-8 5 3-8-7-5h9z"/><path d="m60 10 3 8h9l-7 5 3 8-8-5-8 5 3-8-7-5h9z"/><path d="m15 38 3 8h9l-7 5 3 8-8-5-8 5 3-8-7-5h9z"/><path d="m45 38 3 8h9l-7 5 3 8-8-5-8 5 3-8-7-5h9z"/></g></g>
<path d="M80 18l4 10h11l-9 7 4 10-10-6-10 6 4-10-9-7h11z" fill="url(#g)"/>
<path d="M48 48h42c20 0 31 10 31 25 0 10-5 18-14 22 12 4 18 13 18 25 0 19-13 29-36 29H48Zm24 21v18h17c7 0 11-3 11-9s-4-9-11-9Zm0 38v21h19c8 0 12-4 12-10 0-7-4-11-12-11Z" fill="url(#s)"/>
<path d="m50 154 30 16 30-16-30 10z" fill="url(#g)"/><path d="m57 143 23 12 23-12-23 7z" fill="url(#g)"/>
</svg>
