<svg viewBox="0 0 720 420" xmlns="http://www.w3.org/2000/svg">
  <defs>
    <linearGradient id="bg" x1="0" y1="0" x2="1" y2="1">
      <stop stop-color="#20180e"/><stop offset=".55" stop-color="#0c0d0e"/><stop offset="1" stop-color="#050607"/>
    </linearGradient>
    <radialGradient id="goldGlow" cx="70%" cy="35%" r="58%">
      <stop stop-color="#d7a63c" stop-opacity=".32"/><stop offset="1" stop-color="#d7a63c" stop-opacity="0"/>
    </radialGradient>
    <linearGradient id="bronze" x1="0" y1="0" x2="1" y2="1">
      <stop stop-color="#f2d28a"/><stop offset=".34" stop-color="#bd8430"/><stop offset=".7" stop-color="#6f4318"/><stop offset="1" stop-color="#d6a04a"/>
    </linearGradient>
    <pattern id="paper" width="18" height="18" patternUnits="userSpaceOnUse">
      <path d="M0 4h18M0 13h18" stroke="#fff" stroke-opacity=".018"/>
      <circle cx="5" cy="8" r=".8" fill="#fff" fill-opacity=".025"/>
    </pattern>
    <filter id="shadow" x="-30%" y="-30%" width="160%" height="160%">
      <feDropShadow dx="0" dy="9" stdDeviation="8" flood-color="#000" flood-opacity=".7"/>
    </filter>
  </defs>
  <rect width="720" height="420" fill="url(#bg)"/>
  <rect width="720" height="420" fill="url(#paper)"/>
  <rect width="720" height="420" fill="url(#goldGlow)"/>
  <circle cx="550" cy="200" r="160" fill="none" stroke="#d6a03c" stroke-opacity=".12" stroke-width="2"/>
  <circle cx="550" cy="200" r="126" fill="none" stroke="#d6a03c" stroke-opacity=".08"/>
  <g transform="translate(404 32)" filter="url(#shadow)">
    <!-- Original classical physique illustration; intentionally generic and not based on a real person. -->
    <path d="M146 22c18 0 32 14 32 33 0 17-10 29-24 35l-2 17c21 7 43 20 59 42 12 16 18 36 21 59l10 86c2 17-10 31-27 31h-17l-8 72H84l-8-72H59c-17 0-29-14-27-31l10-86c3-23 9-43 21-59 16-22 38-35 59-42l-2-17c-14-6-24-18-24-35 0-19 14-33 32-33h18z" fill="url(#bronze)" opacity=".97"/>
    <path d="M122 109c-28 9-47 25-58 48 18 10 36 13 54 8 11-3 21-9 28-18 7 9 17 15 28 18 18 5 36 2 54-8-11-23-30-39-58-48-11 10-37 10-48 0z" fill="#3b230f" opacity=".38"/>
    <path d="M91 160c-30 20-45 51-48 92l-8 66c-1 11 8 20 19 20h24l9-84 13-58z" fill="#a76b24"/>
    <path d="M201 160c30 20 45 51 48 92l8 66c1 11-8 20-19 20h-24l-9-84-13-58z" fill="#a76b24"/>
    <path d="M101 172c11 18 27 27 45 27s34-9 45-27l13 43c-14 11-34 17-58 17s-44-6-58-17z" fill="#d6a24b"/>
    <path d="M91 257c19 11 37 16 55 16s36-5 55-16l-5 56c-16 9-33 14-50 14s-34-5-50-14z" fill="#754317" opacity=".74"/>
    <path d="M110 331h72l-4 66h-64z" fill="#4a2b12"/>
    <g fill="none" stroke="#f4d48e" stroke-width="3" stroke-linecap="round" opacity=".72">
      <path d="M118 126c8 8 18 12 28 12s20-4 28-12"/>
      <path d="M93 177c14 13 31 20 53 20s39-7 53-20"/>
      <path d="M100 218c15 9 30 13 46 13s31-4 46-13"/>
      <path d="M111 245c10 6 22 9 35 9s25-3 35-9"/>
      <path d="M78 188c11 14 17 34 18 59"/>
      <path d="M214 188c-11 14-17 34-18 59"/>
      <path d="M125 42c9-9 33-9 42 0"/>
    </g>
    <g fill="none" stroke="#321d0d" stroke-width="4" opacity=".68">
      <path d="M146 199v123"/>
      <path d="M111 212c5 13 17 20 35 20s30-7 35-20"/>
      <path d="M103 258c10 12 25 18 43 18s33-6 43-18"/>
    </g>
  </g>
  <g opacity=".17" fill="#fff" font-family="Georgia, serif" font-weight="700">
    <text x="382" y="342" font-size="70" letter-spacing="2">STRENGTH</text>
    <text x="468" y="376" font-size="18" letter-spacing="6">CLASSIC • BUILT</text>
  </g>
</svg>
